M48
; DRILL file {KiCad 6.0.2-378541a8eb~116~ubuntu20.04.1} date Thu Feb 24 19:38:07 2022
; FORMAT={-:-/ absolute / inch / decimal}
; #@! TF.CreationDate,2022-02-24T19:38:07+01:00
; #@! TF.GenerationSoftware,Kicad,Pcbnew,6.0.2-378541a8eb~116~ubuntu20.04.1
; #@! TF.FileFunction,Plated,1,2,PTH
FMAT,2
INCH
; #@! TA.AperFunction,Plated,PTH,ViaDrill
T1C0.0079
; #@! TA.AperFunction,Plated,PTH,ViaDrill
T2C0.0098
; #@! TA.AperFunction,Plated,PTH,ViaDrill
T3C0.0118
; #@! TA.AperFunction,Plated,PTH,ViaDrill
T4C0.0157
; #@! TA.AperFunction,Plated,PTH,ComponentDrill
T5C0.0197
; #@! TA.AperFunction,Plated,PTH,ComponentDrill
T6C0.0256
; #@! TA.AperFunction,Plated,PTH,ComponentDrill
T7C0.0295
; #@! TA.AperFunction,Plated,PTH,ComponentDrill
T8C0.0394
; #@! TA.AperFunction,Plated,PTH,ComponentDrill
T9C0.0472
; #@! TA.AperFunction,Plated,PTH,ComponentDrill
T10C0.0787
%
G90
G05
T1
X4.9Y-2.38
X5.01Y-2.43
X5.03Y-1.99
X5.29Y-1.97
X5.52Y-2.2
T2
X4.0215Y-2.427
X4.4664Y-2.47
X4.4664Y-2.5064
X4.61Y-2.6476
X4.75Y-2.83
X4.8Y-2.64
X4.81Y-2.32
X4.8447Y-2.3147
X4.85Y-2.19
X4.86Y-2.69
X4.88Y-2.21
X4.88Y-2.31
X4.89Y-2.66
X4.91Y-2.5
X4.94Y-2.72
X4.9838Y-2.3338
X4.9867Y-2.4526
X5.027Y-2.1343
X5.03Y-2.4
X5.038Y-2.3581
X5.05Y-1.93
X5.11Y-2.26
X5.14Y-2.36
X5.2101Y-2.1799
X5.2108Y-2.221
X5.3Y-2.35
T3
X4.2265Y-2.5685
T4
X4.06Y-2.55
X4.06Y-2.69
X4.3Y-2.63
X4.42Y-2.68
X4.45Y-2.56
X4.53Y-2.48
X4.54Y-2.3
X4.63Y-2.12
X4.66Y-2.68
X4.78Y-2.19
X4.8Y-2.44
X4.94Y-2.07
X4.96Y-2.51
X4.97Y-2.69
X5.06Y-2.71
X5.07Y-2.61
X5.17Y-2.0
X5.17Y-2.46
X5.201Y-2.289
X5.33Y-2.2
X5.34Y-2.44
X5.37Y-2.0
X5.5Y-2.07
X5.54Y-2.64
T6
X4.1317Y-1.9183
T7
X4.42Y-1.91
X4.4987Y-1.91
T8
X4.0Y-2.8
X4.1Y-2.8
X4.2Y-2.8
X4.3Y-2.8
X4.4Y-2.8
X4.5Y-2.8
X4.6Y-2.8
X4.7Y-1.9
X4.7Y-2.8
X4.8Y-1.9
X4.8024Y-2.7983
X4.9Y-1.9
X4.9024Y-2.7983
X5.0Y-1.9
X5.0024Y-2.7983
X5.1Y-1.9
X5.1024Y-2.7983
X5.2Y-1.9
X5.4Y-1.9
X5.5Y-1.9
X5.6Y-1.9
X5.7Y-1.9
T9
X5.6866Y-2.0646
X5.6866Y-2.6354
X5.785Y-2.6354
X5.8834Y-2.0646
X5.8834Y-2.6354
T5
G00X3.86Y-1.8832
M15
G01X3.8364Y-1.8832
M16
G05
G00X3.86Y-2.2368
M15
G01X3.8364Y-2.2368
M16
G05
G00X4.0943Y-1.8974
M15
G01X4.0706Y-1.8974
M16
G05
G00X4.0943Y-2.2226
M15
G01X4.0706Y-2.2226
M16
G05
T6
G00X4.1317Y-2.1958
M15
G01X4.1317Y-2.2076
M16
G05
T10
G00X5.5645Y-2.3461
M15
G01X5.5645Y-2.3343
M16
G05
G00X6.0055Y-2.3461
M15
G01X6.0055Y-2.3343
M16
G05
T0
M30
