  0
SECTION
  2
HEADER
  9
$ANGBASE
  50
0.0
  9
$ANGDIR
  70
1
  9
$MEASUREMENT
  70
1
  0
ENDSEC
  0
SECTION
  2
TABLES
  0
TABLE
  2
LTYPE
  70
4
  0
LTYPE
  5
40F
  2
CONTINUOUS
  70
0
  3
Solid line
  72
65
  73
0
  40
0.0
  0
LTYPE
  5
410
  2
DASHDOT
 70
0
  3
Dash Dot ____ _ ____ _
 72
65
 73
4
 40
2.0
 49
1.25
 49
-0.25
 49
0.25
 49
-0.25
  0
LTYPE
  5
411
  2
DASHED
 70
0
  3
Dashed __ __ __ __ __
 72
65
 73
2
 40
0.75
 49
0.5
 49
-0.25
  0
LTYPE
  5
43B
  2
DOTTED
 70
0
  3
Dotted .  .  .  .
 72
65
 73
2
 40
0.2
 49
0.0
 49
-0.2
  0
ENDTAB
  0
TABLE
  2
STYLE
  70
4
  0
STYLE
  2
KICAD
  70
0
  40
0
  41
1
  42
1
  50
0
  71
0
  3
isocp.shx
  0
STYLE
  2
KICADB
  70
0
  40
0
  41
1
  42
1
  50
0
  71
0
  3
isocp.shx
  0
STYLE
  2
KICADI
  70
0
  40
0
  41
1
  42
1
  50
15
  71
0
  3
isocp.shx
  0
STYLE
  2
KICADBI
  70
0
  40
0
  41
1
  42
1
  50
15
  71
0
  3
isocp.shx
  0
ENDTAB
  0
TABLE
  2
LAYER
  70
1
  0
LAYER
  2
BLACK
  70
0
  62
7
  6
CONTINUOUS
  0
ENDTAB
  0
ENDSEC
  0
SECTION
  2
ENTITIES
0
LINE
8
BLACK
6
CONTINUOUS
10
96.5023
20
-72.6867
11
96.4848
21
-72.6795
0
LINE
8
BLACK
6
CONTINUOUS
10
96.4848
20
-72.6795
11
96.4847
21
-72.6794
0
LINE
8
BLACK
6
CONTINUOUS
10
96.4847
20
-72.6794
11
96.4846
21
-72.6794
0
LINE
8
BLACK
6
CONTINUOUS
10
96.4846
20
-72.6794
11
96.4774
21
-72.6618
0
LINE
8
BLACK
6
CONTINUOUS
10
96.4774
20
-72.6618
11
96.47
21
-72.6442
0
LINE
8
BLACK
6
CONTINUOUS
10
96.47
20
-72.6442
11
96.45
21
-66.7862
0
LINE
8
BLACK
6
CONTINUOUS
10
96.45
20
-66.7862
11
96.4645
21
-66.7508
0
LINE
8
BLACK
6
CONTINUOUS
10
96.4645
20
-66.7508
11
96.475
21
-66.7464
0
LINE
8
BLACK
6
CONTINUOUS
10
96.475
20
-66.7464
11
96.475
21
-63.786
0
LINE
8
BLACK
6
CONTINUOUS
10
96.475
20
-63.786
11
96.4929
21
-63.6501
0
LINE
8
BLACK
6
CONTINUOUS
10
96.4929
20
-63.6501
11
96.5453
21
-63.5235
0
LINE
8
BLACK
6
CONTINUOUS
10
96.5453
20
-63.5235
11
96.6288
21
-63.4148
0
LINE
8
BLACK
6
CONTINUOUS
10
96.6288
20
-63.4148
11
96.6298
21
-63.4144
0
LINE
8
BLACK
6
CONTINUOUS
10
96.6298
20
-63.4144
11
96.6303
21
-63.4134
0
LINE
8
BLACK
6
CONTINUOUS
10
96.6303
20
-63.4134
11
96.6385
21
-63.4107
0
LINE
8
BLACK
6
CONTINUOUS
10
96.6385
20
-63.4107
11
96.6434
21
-63.4087
0
LINE
8
BLACK
6
CONTINUOUS
10
96.6434
20
-63.4087
11
96.7732
21
-63.2675
0
LINE
8
BLACK
6
CONTINUOUS
10
96.7732
20
-63.2675
11
96.8707
21
-63.0872
0
LINE
8
BLACK
6
CONTINUOUS
10
96.8707
20
-63.0872
11
96.921
21
-62.8885
0
LINE
8
BLACK
6
CONTINUOUS
10
96.921
20
-62.8885
11
96.921
21
-62.6835
0
LINE
8
BLACK
6
CONTINUOUS
10
96.921
20
-62.6835
11
96.8707
21
-62.4848
0
LINE
8
BLACK
6
CONTINUOUS
10
96.8707
20
-62.4848
11
96.7732
21
-62.3045
0
LINE
8
BLACK
6
CONTINUOUS
10
96.7732
20
-62.3045
11
96.6434
21
-62.1633
0
LINE
8
BLACK
6
CONTINUOUS
10
96.6434
20
-62.1633
11
96.6385
21
-62.1613
0
LINE
8
BLACK
6
CONTINUOUS
10
96.6385
20
-62.1613
11
96.6303
21
-62.1586
0
LINE
8
BLACK
6
CONTINUOUS
10
96.6303
20
-62.1586
11
96.6298
21
-62.1576
0
LINE
8
BLACK
6
CONTINUOUS
10
96.6298
20
-62.1576
11
96.6288
21
-62.1572
0
LINE
8
BLACK
6
CONTINUOUS
10
96.6288
20
-62.1572
11
96.6288
21
-62.1572
0
LINE
8
BLACK
6
CONTINUOUS
10
96.6288
20
-62.1572
11
96.5453
21
-62.0485
0
LINE
8
BLACK
6
CONTINUOUS
10
96.5453
20
-62.0485
11
96.4929
21
-61.9219
0
LINE
8
BLACK
6
CONTINUOUS
10
96.4929
20
-61.9219
11
96.475
21
-61.786
0
LINE
8
BLACK
6
CONTINUOUS
10
96.475
20
-61.786
11
96.475
21
-61.786
0
LINE
8
BLACK
6
CONTINUOUS
10
96.475
20
-61.786
11
96.475
21
-60.8256
0
LINE
8
BLACK
6
CONTINUOUS
10
96.475
20
-60.8256
11
96.4646
21
-60.8213
0
LINE
8
BLACK
6
CONTINUOUS
10
96.4646
20
-60.8213
11
96.45
21
-60.7859
0
LINE
8
BLACK
6
CONTINUOUS
10
96.45
20
-60.7859
11
96.47
21
-46.7359
0
LINE
8
BLACK
6
CONTINUOUS
10
96.47
20
-46.7359
11
96.4774
21
-46.7182
0
LINE
8
BLACK
6
CONTINUOUS
10
96.4774
20
-46.7182
11
96.4846
21
-46.7006
0
LINE
8
BLACK
6
CONTINUOUS
10
96.4846
20
-46.7006
11
96.4847
21
-46.7006
0
LINE
8
BLACK
6
CONTINUOUS
10
96.4847
20
-46.7006
11
96.4847
21
-46.7006
0
LINE
8
BLACK
6
CONTINUOUS
10
96.4847
20
-46.7006
11
96.5023
21
-46.6933
0
LINE
8
BLACK
6
CONTINUOUS
10
96.5023
20
-46.6933
11
96.52
21
-46.686
0
LINE
8
BLACK
6
CONTINUOUS
10
96.52
20
-46.686
11
154.686
21
-46.686
0
LINE
8
BLACK
6
CONTINUOUS
10
154.686
20
-46.686
11
154.721
21
-46.7006
0
LINE
8
BLACK
6
CONTINUOUS
10
154.721
20
-46.7006
11
154.736
21
-46.736
0
LINE
8
BLACK
6
CONTINUOUS
10
154.736
20
-46.736
11
154.736
21
-72.644
0
LINE
8
BLACK
6
CONTINUOUS
10
154.736
20
-72.644
11
154.721
21
-72.6794
0
LINE
8
BLACK
6
CONTINUOUS
10
154.721
20
-72.6794
11
154.686
21
-72.694
0
LINE
8
BLACK
6
CONTINUOUS
10
154.686
20
-72.694
11
96.52
21
-72.694
0
LINE
8
BLACK
6
CONTINUOUS
10
96.52
20
-72.694
11
96.5023
21
-72.6867
0
LINE
8
BLACK
6
CONTINUOUS
10
96.5699
20
-46.786
11
96.55
21
-60.7861
0
LINE
8
BLACK
6
CONTINUOUS
10
96.55
20
-60.7861
11
96.5353
21
-60.8214
0
LINE
8
BLACK
6
CONTINUOUS
10
96.5353
20
-60.8214
11
96.525
21
-60.8257
0
LINE
8
BLACK
6
CONTINUOUS
10
96.525
20
-60.8257
11
96.525
21
-61.786
0
LINE
8
BLACK
6
CONTINUOUS
10
96.525
20
-61.786
11
96.5219
21
-61.7935
0
LINE
8
BLACK
6
CONTINUOUS
10
96.5219
20
-61.7935
11
96.5372
21
-61.91
0
LINE
8
BLACK
6
CONTINUOUS
10
96.5372
20
-61.91
11
96.5851
21
-62.0255
0
LINE
8
BLACK
6
CONTINUOUS
10
96.5851
20
-62.0255
11
96.6564
21
-62.1185
0
LINE
8
BLACK
6
CONTINUOUS
10
96.6564
20
-62.1185
11
96.6626
21
-62.1205
0
LINE
8
BLACK
6
CONTINUOUS
10
96.6626
20
-62.1205
11
96.6638
21
-62.1217
0
LINE
8
BLACK
6
CONTINUOUS
10
96.6638
20
-62.1217
11
96.6641
21
-62.1219
0
LINE
8
BLACK
6
CONTINUOUS
10
96.6641
20
-62.1219
11
96.6643
21
-62.1223
0
LINE
8
BLACK
6
CONTINUOUS
10
96.6643
20
-62.1223
11
96.8086
21
-62.2793
0
LINE
8
BLACK
6
CONTINUOUS
10
96.8086
20
-62.2793
11
96.9112
21
-62.469
0
LINE
8
BLACK
6
CONTINUOUS
10
96.9112
20
-62.469
11
96.9641
21
-62.6781
0
LINE
8
BLACK
6
CONTINUOUS
10
96.9641
20
-62.6781
11
96.9641
21
-62.8939
0
LINE
8
BLACK
6
CONTINUOUS
10
96.9641
20
-62.8939
11
96.9112
21
-63.103
0
LINE
8
BLACK
6
CONTINUOUS
10
96.9112
20
-63.103
11
96.8086
21
-63.2927
0
LINE
8
BLACK
6
CONTINUOUS
10
96.8086
20
-63.2927
11
96.6643
21
-63.4497
0
LINE
8
BLACK
6
CONTINUOUS
10
96.6643
20
-63.4497
11
96.6641
21
-63.4501
0
LINE
8
BLACK
6
CONTINUOUS
10
96.6641
20
-63.4501
11
96.6638
21
-63.4503
0
LINE
8
BLACK
6
CONTINUOUS
10
96.6638
20
-63.4503
11
96.6626
21
-63.4515
0
LINE
8
BLACK
6
CONTINUOUS
10
96.6626
20
-63.4515
11
96.6564
21
-63.4535
0
LINE
8
BLACK
6
CONTINUOUS
10
96.6564
20
-63.4535
11
96.5851
21
-63.5465
0
LINE
8
BLACK
6
CONTINUOUS
10
96.5851
20
-63.5465
11
96.5372
21
-63.662
0
LINE
8
BLACK
6
CONTINUOUS
10
96.5372
20
-63.662
11
96.5219
21
-63.7785
0
LINE
8
BLACK
6
CONTINUOUS
10
96.5219
20
-63.7785
11
96.525
21
-63.786
0
LINE
8
BLACK
6
CONTINUOUS
10
96.525
20
-63.786
11
96.525
21
-66.7463
0
LINE
8
BLACK
6
CONTINUOUS
10
96.525
20
-66.7463
11
96.5352
21
-66.7505
0
LINE
8
BLACK
6
CONTINUOUS
10
96.5352
20
-66.7505
11
96.55
21
-66.7858
0
LINE
8
BLACK
6
CONTINUOUS
10
96.55
20
-66.7858
11
96.5698
21
-72.594
0
LINE
8
BLACK
6
CONTINUOUS
10
96.5698
20
-72.594
11
154.636
21
-72.594
0
LINE
8
BLACK
6
CONTINUOUS
10
154.636
20
-72.594
11
154.636
21
-46.786
0
LINE
8
BLACK
6
CONTINUOUS
10
154.636
20
-46.786
11
96.5699
21
-46.786
  0
ENDSEC
  0
EOF
