%TF.GenerationSoftware,KiCad,Pcbnew,6.0.2-378541a8eb~116~ubuntu20.04.1*%
%TF.CreationDate,2022-02-24T19:36:18+01:00*%
%TF.ProjectId,Scale,5363616c-652e-46b6-9963-61645f706362,rev?*%
%TF.SameCoordinates,Original*%
%TF.FileFunction,Paste,Top*%
%TF.FilePolarity,Positive*%
%FSLAX46Y46*%
G04 Gerber Fmt 4.6, Leading zero omitted, Abs format (unit mm)*
G04 Created by KiCad (PCBNEW 6.0.2-378541a8eb~116~ubuntu20.04.1) date 2022-02-24 19:36:18*
%MOMM*%
%LPD*%
G01*
G04 APERTURE LIST*
G04 Aperture macros list*
%AMRoundRect*
0 Rectangle with rounded corners*
0 $1 Rounding radius*
0 $2 $3 $4 $5 $6 $7 $8 $9 X,Y pos of 4 corners*
0 Add a 4 corners polygon primitive as box body*
4,1,4,$2,$3,$4,$5,$6,$7,$8,$9,$2,$3,0*
0 Add four circle primitives for the rounded corners*
1,1,$1+$1,$2,$3*
1,1,$1+$1,$4,$5*
1,1,$1+$1,$6,$7*
1,1,$1+$1,$8,$9*
0 Add four rect primitives between the rounded corners*
20,1,$1+$1,$2,$3,$4,$5,0*
20,1,$1+$1,$4,$5,$6,$7,0*
20,1,$1+$1,$6,$7,$8,$9,0*
20,1,$1+$1,$8,$9,$2,$3,0*%
G04 Aperture macros list end*
%ADD10R,0.700000X0.300000*%
%ADD11R,1.050000X0.950000*%
%ADD12RoundRect,0.075000X-0.662500X-0.075000X0.662500X-0.075000X0.662500X0.075000X-0.662500X0.075000X0*%
%ADD13RoundRect,0.075000X-0.075000X-0.662500X0.075000X-0.662500X0.075000X0.662500X-0.075000X0.662500X0*%
%ADD14RoundRect,0.237500X0.250000X0.237500X-0.250000X0.237500X-0.250000X-0.237500X0.250000X-0.237500X0*%
%ADD15RoundRect,0.237500X0.300000X0.237500X-0.300000X0.237500X-0.300000X-0.237500X0.300000X-0.237500X0*%
%ADD16RoundRect,0.237500X-0.237500X0.250000X-0.237500X-0.250000X0.237500X-0.250000X0.237500X0.250000X0*%
%ADD17RoundRect,0.200000X-0.200000X-0.275000X0.200000X-0.275000X0.200000X0.275000X-0.200000X0.275000X0*%
%ADD18RoundRect,0.237500X-0.250000X-0.237500X0.250000X-0.237500X0.250000X0.237500X-0.250000X0.237500X0*%
%ADD19RoundRect,0.200000X-0.275000X0.200000X-0.275000X-0.200000X0.275000X-0.200000X0.275000X0.200000X0*%
%ADD20RoundRect,0.100000X0.100000X-0.712500X0.100000X0.712500X-0.100000X0.712500X-0.100000X-0.712500X0*%
%ADD21RoundRect,0.150000X0.150000X-0.587500X0.150000X0.587500X-0.150000X0.587500X-0.150000X-0.587500X0*%
%ADD22RoundRect,0.200000X0.200000X0.275000X-0.200000X0.275000X-0.200000X-0.275000X0.200000X-0.275000X0*%
%ADD23RoundRect,0.150000X0.825000X0.150000X-0.825000X0.150000X-0.825000X-0.150000X0.825000X-0.150000X0*%
%ADD24RoundRect,0.237500X-0.300000X-0.237500X0.300000X-0.237500X0.300000X0.237500X-0.300000X0.237500X0*%
%ADD25R,0.900000X1.000000*%
%ADD26RoundRect,0.150000X-0.512500X-0.150000X0.512500X-0.150000X0.512500X0.150000X-0.512500X0.150000X0*%
%ADD27R,0.650000X0.400000*%
%ADD28RoundRect,0.237500X-0.237500X0.300000X-0.237500X-0.300000X0.237500X-0.300000X0.237500X0.300000X0*%
%ADD29RoundRect,0.225000X-0.225000X-0.250000X0.225000X-0.250000X0.225000X0.250000X-0.225000X0.250000X0*%
%ADD30RoundRect,0.237500X0.237500X-0.250000X0.237500X0.250000X-0.237500X0.250000X-0.237500X-0.250000X0*%
%ADD31RoundRect,0.225000X0.250000X-0.225000X0.250000X0.225000X-0.250000X0.225000X-0.250000X-0.225000X0*%
%ADD32R,1.000000X1.000000*%
%ADD33RoundRect,0.150000X0.587500X0.150000X-0.587500X0.150000X-0.587500X-0.150000X0.587500X-0.150000X0*%
G04 APERTURE END LIST*
D10*
%TO.C,J6*%
X105604000Y-49574000D03*
X105604000Y-50074000D03*
X105604000Y-50574000D03*
X105604000Y-51074000D03*
X105604000Y-51574000D03*
X105604000Y-52074000D03*
X105604000Y-52574000D03*
X105604000Y-53074000D03*
X105604000Y-53574000D03*
X105604000Y-54074000D03*
X105604000Y-54574000D03*
X105604000Y-55074000D03*
X103904000Y-54824000D03*
X103904000Y-54324000D03*
X103904000Y-53824000D03*
X103904000Y-53324000D03*
X103904000Y-52824000D03*
X103904000Y-52324000D03*
X103904000Y-51824000D03*
X103904000Y-51324000D03*
X103904000Y-50824000D03*
X103904000Y-50324000D03*
X103904000Y-49824000D03*
X103904000Y-49324000D03*
%TD*%
D11*
%TO.C,X1*%
X118146000Y-63918000D03*
X116296000Y-63918000D03*
X116296000Y-65368000D03*
X118146000Y-65368000D03*
%TD*%
D12*
%TO.C,U1*%
X120705000Y-58845000D03*
X120705000Y-59345000D03*
X120705000Y-59845000D03*
X120705000Y-60345000D03*
X120705000Y-60845000D03*
X120705000Y-61345000D03*
X120705000Y-61845000D03*
X120705000Y-62345000D03*
X120705000Y-62845000D03*
X120705000Y-63345000D03*
X120705000Y-63845000D03*
X120705000Y-64345000D03*
D13*
X122117500Y-65757500D03*
X122617500Y-65757500D03*
X123117500Y-65757500D03*
X123617500Y-65757500D03*
X124117500Y-65757500D03*
X124617500Y-65757500D03*
X125117500Y-65757500D03*
X125617500Y-65757500D03*
X126117500Y-65757500D03*
X126617500Y-65757500D03*
X127117500Y-65757500D03*
X127617500Y-65757500D03*
D12*
X129030000Y-64345000D03*
X129030000Y-63845000D03*
X129030000Y-63345000D03*
X129030000Y-62845000D03*
X129030000Y-62345000D03*
X129030000Y-61845000D03*
X129030000Y-61345000D03*
X129030000Y-60845000D03*
X129030000Y-60345000D03*
X129030000Y-59845000D03*
X129030000Y-59345000D03*
X129030000Y-58845000D03*
D13*
X127617500Y-57432500D03*
X127117500Y-57432500D03*
X126617500Y-57432500D03*
X126117500Y-57432500D03*
X125617500Y-57432500D03*
X125117500Y-57432500D03*
X124617500Y-57432500D03*
X124117500Y-57432500D03*
X123617500Y-57432500D03*
X123117500Y-57432500D03*
X122617500Y-57432500D03*
X122117500Y-57432500D03*
%TD*%
D14*
%TO.C,R14*%
X115720500Y-56134000D03*
X113895500Y-56134000D03*
%TD*%
D15*
%TO.C,C2*%
X118110000Y-57658000D03*
X116385000Y-57658000D03*
%TD*%
D16*
%TO.C,R12*%
X135128000Y-65381500D03*
X135128000Y-67206500D03*
%TD*%
D14*
%TO.C,R13*%
X130452500Y-54864000D03*
X128627500Y-54864000D03*
%TD*%
%TO.C,R1*%
X138707500Y-56515000D03*
X136882500Y-56515000D03*
%TD*%
D17*
%TO.C,R5*%
X137224000Y-63627000D03*
X138874000Y-63627000D03*
%TD*%
D18*
%TO.C,R9*%
X133326500Y-68834000D03*
X135151500Y-68834000D03*
%TD*%
D16*
%TO.C,R15*%
X108839000Y-57888500D03*
X108839000Y-59713500D03*
%TD*%
D19*
%TO.C,R7*%
X149606000Y-48705000D03*
X149606000Y-50355000D03*
%TD*%
D18*
%TO.C,R2*%
X133072500Y-63246000D03*
X134897500Y-63246000D03*
%TD*%
D20*
%TO.C,U4*%
X132883000Y-61167500D03*
X133533000Y-61167500D03*
X134183000Y-61167500D03*
X134833000Y-61167500D03*
X134833000Y-56942500D03*
X134183000Y-56942500D03*
X133533000Y-56942500D03*
X132883000Y-56942500D03*
%TD*%
D21*
%TO.C,Q2*%
X128590000Y-53007500D03*
X130490000Y-53007500D03*
X129540000Y-51132500D03*
%TD*%
D22*
%TO.C,R4*%
X138874000Y-62103000D03*
X137224000Y-62103000D03*
%TD*%
D16*
%TO.C,R10*%
X127000000Y-53062500D03*
X127000000Y-54887500D03*
%TD*%
D23*
%TO.C,U3*%
X137730000Y-54737000D03*
X137730000Y-53467000D03*
X137730000Y-52197000D03*
X137730000Y-50927000D03*
X132780000Y-50927000D03*
X132780000Y-52197000D03*
X132780000Y-53467000D03*
X132780000Y-54737000D03*
%TD*%
D17*
%TO.C,R6*%
X137224000Y-65151000D03*
X138874000Y-65151000D03*
%TD*%
D24*
%TO.C,C7*%
X110516500Y-56134000D03*
X112241500Y-56134000D03*
%TD*%
D25*
%TO.C,SW1*%
X110127000Y-65240000D03*
X106027000Y-65240000D03*
X110127000Y-66840000D03*
X106027000Y-66840000D03*
%TD*%
D26*
%TO.C,U6*%
X110749500Y-57851000D03*
X110749500Y-58801000D03*
X110749500Y-59751000D03*
X113024500Y-59751000D03*
X113024500Y-57851000D03*
%TD*%
%TO.C,U5*%
X112258500Y-52660000D03*
X112258500Y-53610000D03*
X112258500Y-54560000D03*
X114533500Y-54560000D03*
X114533500Y-52660000D03*
%TD*%
D24*
%TO.C,C5*%
X112167500Y-65913000D03*
X113892500Y-65913000D03*
%TD*%
D27*
%TO.C,Q3*%
X116652000Y-52690000D03*
X116652000Y-53340000D03*
X116652000Y-53990000D03*
X118552000Y-53990000D03*
X118552000Y-53340000D03*
X118552000Y-52690000D03*
%TD*%
D18*
%TO.C,R3*%
X136882500Y-58166000D03*
X138707500Y-58166000D03*
%TD*%
D28*
%TO.C,C6*%
X131318000Y-56414500D03*
X131318000Y-58139500D03*
%TD*%
D29*
%TO.C,C9*%
X137274000Y-68199000D03*
X138824000Y-68199000D03*
%TD*%
D30*
%TO.C,R16*%
X108712000Y-49553500D03*
X108712000Y-47728500D03*
%TD*%
D29*
%TO.C,C8*%
X137274000Y-60579000D03*
X138824000Y-60579000D03*
%TD*%
D31*
%TO.C,C10*%
X148082000Y-50305000D03*
X148082000Y-48755000D03*
%TD*%
D15*
%TO.C,C4*%
X118083500Y-60736000D03*
X116358500Y-60736000D03*
%TD*%
%TO.C,C3*%
X118083500Y-62230000D03*
X116358500Y-62230000D03*
%TD*%
D17*
%TO.C,R8*%
X137224000Y-66675000D03*
X138874000Y-66675000D03*
%TD*%
D16*
%TO.C,R11*%
X110490000Y-52681500D03*
X110490000Y-54506500D03*
%TD*%
D32*
%TO.C,D1*%
X139847000Y-51054000D03*
X142347000Y-51054000D03*
%TD*%
D15*
%TO.C,C1*%
X118110000Y-59182000D03*
X116385000Y-59182000D03*
%TD*%
D33*
%TO.C,Q1*%
X133271500Y-67244000D03*
X133271500Y-65344000D03*
X131396500Y-66294000D03*
%TD*%
M02*
