%TF.GenerationSoftware,KiCad,Pcbnew,6.0.2-378541a8eb~116~ubuntu20.04.1*%
%TF.CreationDate,2022-02-24T19:36:26+01:00*%
%TF.ProjectId,Scale,5363616c-652e-46b6-9963-61645f706362,rev?*%
%TF.SameCoordinates,Original*%
%TF.FileFunction,Soldermask,Top*%
%TF.FilePolarity,Negative*%
%FSLAX46Y46*%
G04 Gerber Fmt 4.6, Leading zero omitted, Abs format (unit mm)*
G04 Created by KiCad (PCBNEW 6.0.2-378541a8eb~116~ubuntu20.04.1) date 2022-02-24 19:36:26*
%MOMM*%
%LPD*%
G01*
G04 APERTURE LIST*
G04 Aperture macros list*
%AMRoundRect*
0 Rectangle with rounded corners*
0 $1 Rounding radius*
0 $2 $3 $4 $5 $6 $7 $8 $9 X,Y pos of 4 corners*
0 Add a 4 corners polygon primitive as box body*
4,1,4,$2,$3,$4,$5,$6,$7,$8,$9,$2,$3,0*
0 Add four circle primitives for the rounded corners*
1,1,$1+$1,$2,$3*
1,1,$1+$1,$4,$5*
1,1,$1+$1,$6,$7*
1,1,$1+$1,$8,$9*
0 Add four rect primitives between the rounded corners*
20,1,$1+$1,$2,$3,$4,$5,0*
20,1,$1+$1,$4,$5,$6,$7,0*
20,1,$1+$1,$6,$7,$8,$9,0*
20,1,$1+$1,$8,$9,$2,$3,0*%
%AMFreePoly0*
4,1,14,0.500000,-0.520000,0.480000,-0.540000,0.440000,-0.590000,0.400000,-0.650000,0.370000,-0.700000,0.350000,-0.750000,0.330000,-0.810000,0.310000,-0.890000,0.300000,-1.000000,0.300000,-3.200000,-0.500000,-3.200000,-0.500000,0.500000,0.500000,0.500000,0.500000,-0.520000,0.500000,-0.520000,$1*%
%AMFreePoly1*
4,1,14,0.500000,-3.000000,-0.300000,-3.000000,-0.300000,-1.000000,-0.310000,-0.890000,-0.330000,-0.810000,-0.350000,-0.750000,-0.370000,-0.700000,-0.400000,-0.650000,-0.440000,-0.590000,-0.480000,-0.540000,-0.500000,-0.520000,-0.500000,0.500000,0.500000,0.500000,0.500000,-3.000000,0.500000,-3.000000,$1*%
G04 Aperture macros list end*
%ADD10C,0.150000*%
%ADD11C,0.100000*%
%ADD12C,1.000000*%
%ADD13FreePoly0,270.000000*%
%ADD14FreePoly1,270.000000*%
%ADD15R,3.500000X1.000000*%
%ADD16O,1.050000X1.350000*%
%ADD17C,1.050000*%
%ADD18R,0.700000X0.300000*%
%ADD19O,1.400000X0.800000*%
%ADD20O,3.000000X3.300000*%
%ADD21C,2.200000*%
%ADD22R,1.700000X1.700000*%
%ADD23O,1.700000X1.700000*%
%ADD24R,1.050000X0.950000*%
%ADD25RoundRect,0.075000X-0.662500X-0.075000X0.662500X-0.075000X0.662500X0.075000X-0.662500X0.075000X0*%
%ADD26RoundRect,0.075000X-0.075000X-0.662500X0.075000X-0.662500X0.075000X0.662500X-0.075000X0.662500X0*%
%ADD27RoundRect,0.237500X0.250000X0.237500X-0.250000X0.237500X-0.250000X-0.237500X0.250000X-0.237500X0*%
%ADD28RoundRect,0.237500X0.300000X0.237500X-0.300000X0.237500X-0.300000X-0.237500X0.300000X-0.237500X0*%
%ADD29RoundRect,0.237500X-0.237500X0.250000X-0.237500X-0.250000X0.237500X-0.250000X0.237500X0.250000X0*%
%ADD30RoundRect,0.200000X-0.200000X-0.275000X0.200000X-0.275000X0.200000X0.275000X-0.200000X0.275000X0*%
%ADD31RoundRect,0.237500X-0.250000X-0.237500X0.250000X-0.237500X0.250000X0.237500X-0.250000X0.237500X0*%
%ADD32RoundRect,0.200000X-0.275000X0.200000X-0.275000X-0.200000X0.275000X-0.200000X0.275000X0.200000X0*%
%ADD33RoundRect,0.100000X0.100000X-0.712500X0.100000X0.712500X-0.100000X0.712500X-0.100000X-0.712500X0*%
%ADD34RoundRect,0.150000X0.150000X-0.587500X0.150000X0.587500X-0.150000X0.587500X-0.150000X-0.587500X0*%
%ADD35RoundRect,0.200000X0.200000X0.275000X-0.200000X0.275000X-0.200000X-0.275000X0.200000X-0.275000X0*%
%ADD36RoundRect,0.150000X0.825000X0.150000X-0.825000X0.150000X-0.825000X-0.150000X0.825000X-0.150000X0*%
%ADD37RoundRect,0.237500X-0.300000X-0.237500X0.300000X-0.237500X0.300000X0.237500X-0.300000X0.237500X0*%
%ADD38R,0.900000X1.000000*%
%ADD39RoundRect,0.150000X-0.512500X-0.150000X0.512500X-0.150000X0.512500X0.150000X-0.512500X0.150000X0*%
%ADD40R,0.650000X0.400000*%
%ADD41RoundRect,0.250000X-0.350000X-0.625000X0.350000X-0.625000X0.350000X0.625000X-0.350000X0.625000X0*%
%ADD42O,1.200000X1.750000*%
%ADD43RoundRect,0.237500X-0.237500X0.300000X-0.237500X-0.300000X0.237500X-0.300000X0.237500X0.300000X0*%
%ADD44RoundRect,0.225000X-0.225000X-0.250000X0.225000X-0.250000X0.225000X0.250000X-0.225000X0.250000X0*%
%ADD45RoundRect,0.237500X0.237500X-0.250000X0.237500X0.250000X-0.237500X0.250000X-0.237500X-0.250000X0*%
%ADD46RoundRect,0.225000X0.250000X-0.225000X0.250000X0.225000X-0.250000X0.225000X-0.250000X-0.225000X0*%
%ADD47R,1.000000X1.000000*%
%ADD48RoundRect,0.150000X0.587500X0.150000X-0.587500X0.150000X-0.587500X-0.150000X0.587500X-0.150000X0*%
G04 APERTURE END LIST*
D10*
%TO.C,J2*%
X101550000Y-62286000D02*
X101550000Y-62136000D01*
X102050000Y-62436000D02*
X102200000Y-62436000D01*
X101900000Y-62286000D02*
X101900000Y-62136000D01*
X101050000Y-62436000D02*
X100900000Y-62436000D01*
X101200000Y-63286000D02*
X101200000Y-63436000D01*
X102050000Y-63136000D02*
X102200000Y-63136000D01*
X101550000Y-63286000D02*
X101550000Y-63436000D01*
X101200000Y-62286000D02*
X101200000Y-62136000D01*
X101900000Y-63286000D02*
X101900000Y-63436000D01*
X102050000Y-62786000D02*
X102200000Y-62786000D01*
X101050000Y-62786000D02*
X100900000Y-62786000D01*
X101050000Y-63136000D02*
X100900000Y-63136000D01*
D11*
X101100000Y-63236000D02*
X101100000Y-62336000D01*
X101100000Y-62336000D02*
X102000000Y-62336000D01*
X102000000Y-62336000D02*
X102000000Y-63236000D01*
X102000000Y-63236000D02*
X101100000Y-63236000D01*
G36*
X102000000Y-63236000D02*
G01*
X101100000Y-63236000D01*
X101100000Y-62336000D01*
X102000000Y-62336000D01*
X102000000Y-63236000D01*
G37*
X102000000Y-63236000D02*
X101100000Y-63236000D01*
X101100000Y-62336000D01*
X102000000Y-62336000D01*
X102000000Y-63236000D01*
D10*
X101550000Y-62286000D02*
X101550000Y-62136000D01*
X102050000Y-62436000D02*
X102200000Y-62436000D01*
X101900000Y-62286000D02*
X101900000Y-62136000D01*
X101050000Y-62436000D02*
X100900000Y-62436000D01*
X101200000Y-63286000D02*
X101200000Y-63436000D01*
X102050000Y-63136000D02*
X102200000Y-63136000D01*
X101550000Y-63286000D02*
X101550000Y-63436000D01*
X101200000Y-62286000D02*
X101200000Y-62136000D01*
X101900000Y-63286000D02*
X101900000Y-63436000D01*
X102050000Y-62786000D02*
X102200000Y-62786000D01*
X101050000Y-62786000D02*
X100900000Y-62786000D01*
X101050000Y-63136000D02*
X100900000Y-63136000D01*
D11*
X101100000Y-63236000D02*
X101100000Y-62336000D01*
X101100000Y-62336000D02*
X102000000Y-62336000D01*
X102000000Y-62336000D02*
X102000000Y-63236000D01*
X102000000Y-63236000D02*
X101100000Y-63236000D01*
G36*
X102000000Y-63236000D02*
G01*
X101100000Y-63236000D01*
X101100000Y-62336000D01*
X102000000Y-62336000D01*
X102000000Y-63236000D01*
G37*
X102000000Y-63236000D02*
X101100000Y-63236000D01*
X101100000Y-62336000D01*
X102000000Y-62336000D01*
X102000000Y-63236000D01*
%TD*%
D12*
%TO.C,J2*%
X99100000Y-62786000D03*
X97625000Y-62786000D03*
D13*
X100100000Y-61786000D03*
D14*
X100100000Y-63786000D03*
D15*
X98850000Y-65786000D03*
%TD*%
D16*
%TO.C,J6*%
X104944000Y-55924000D03*
D17*
X104944000Y-48724000D03*
D18*
X105604000Y-49574000D03*
X105604000Y-50074000D03*
X105604000Y-50574000D03*
X105604000Y-51074000D03*
X105604000Y-51574000D03*
X105604000Y-52074000D03*
X105604000Y-52574000D03*
X105604000Y-53074000D03*
X105604000Y-53574000D03*
X105604000Y-54074000D03*
X105604000Y-54574000D03*
X105604000Y-55074000D03*
X103904000Y-54824000D03*
X103904000Y-54324000D03*
X103904000Y-53824000D03*
X103904000Y-53324000D03*
X103904000Y-52824000D03*
X103904000Y-52324000D03*
X103904000Y-51824000D03*
X103904000Y-51324000D03*
X103904000Y-50824000D03*
X103904000Y-50324000D03*
X103904000Y-49824000D03*
X103904000Y-49324000D03*
D19*
X103694000Y-56454000D03*
X103694000Y-48194000D03*
X97744000Y-47834000D03*
X97744000Y-56814000D03*
%TD*%
D20*
%TO.C,SW2*%
X152539000Y-59440000D03*
X141339000Y-59440000D03*
D21*
X149439000Y-66940000D03*
X144439000Y-66940000D03*
X146939000Y-66940000D03*
X149439000Y-52440000D03*
X144439000Y-52440000D03*
%TD*%
D22*
%TO.C,J3*%
X121980000Y-71076000D03*
D23*
X124520000Y-71076000D03*
X127060000Y-71076000D03*
X129600000Y-71076000D03*
%TD*%
D24*
%TO.C,X1*%
X118146000Y-63918000D03*
X116296000Y-63918000D03*
X116296000Y-65368000D03*
X118146000Y-65368000D03*
%TD*%
D25*
%TO.C,U1*%
X120705000Y-58845000D03*
X120705000Y-59345000D03*
X120705000Y-59845000D03*
X120705000Y-60345000D03*
X120705000Y-60845000D03*
X120705000Y-61345000D03*
X120705000Y-61845000D03*
X120705000Y-62345000D03*
X120705000Y-62845000D03*
X120705000Y-63345000D03*
X120705000Y-63845000D03*
X120705000Y-64345000D03*
D26*
X122117500Y-65757500D03*
X122617500Y-65757500D03*
X123117500Y-65757500D03*
X123617500Y-65757500D03*
X124117500Y-65757500D03*
X124617500Y-65757500D03*
X125117500Y-65757500D03*
X125617500Y-65757500D03*
X126117500Y-65757500D03*
X126617500Y-65757500D03*
X127117500Y-65757500D03*
X127617500Y-65757500D03*
D25*
X129030000Y-64345000D03*
X129030000Y-63845000D03*
X129030000Y-63345000D03*
X129030000Y-62845000D03*
X129030000Y-62345000D03*
X129030000Y-61845000D03*
X129030000Y-61345000D03*
X129030000Y-60845000D03*
X129030000Y-60345000D03*
X129030000Y-59845000D03*
X129030000Y-59345000D03*
X129030000Y-58845000D03*
D26*
X127617500Y-57432500D03*
X127117500Y-57432500D03*
X126617500Y-57432500D03*
X126117500Y-57432500D03*
X125617500Y-57432500D03*
X125117500Y-57432500D03*
X124617500Y-57432500D03*
X124117500Y-57432500D03*
X123617500Y-57432500D03*
X123117500Y-57432500D03*
X122617500Y-57432500D03*
X122117500Y-57432500D03*
%TD*%
D27*
%TO.C,R14*%
X115720500Y-56134000D03*
X113895500Y-56134000D03*
%TD*%
D22*
%TO.C,J5*%
X132080000Y-48260000D03*
D23*
X129540000Y-48260000D03*
X127000000Y-48260000D03*
X124460000Y-48260000D03*
X121920000Y-48260000D03*
X119380000Y-48260000D03*
%TD*%
D28*
%TO.C,C2*%
X118110000Y-57658000D03*
X116385000Y-57658000D03*
%TD*%
D29*
%TO.C,R12*%
X135128000Y-65381500D03*
X135128000Y-67206500D03*
%TD*%
D27*
%TO.C,R13*%
X130452500Y-54864000D03*
X128627500Y-54864000D03*
%TD*%
%TO.C,R1*%
X138707500Y-56515000D03*
X136882500Y-56515000D03*
%TD*%
D30*
%TO.C,R5*%
X137224000Y-63627000D03*
X138874000Y-63627000D03*
%TD*%
D31*
%TO.C,R9*%
X133326500Y-68834000D03*
X135151500Y-68834000D03*
%TD*%
D29*
%TO.C,R15*%
X108839000Y-57888500D03*
X108839000Y-59713500D03*
%TD*%
D32*
%TO.C,R7*%
X149606000Y-48705000D03*
X149606000Y-50355000D03*
%TD*%
D31*
%TO.C,R2*%
X133072500Y-63246000D03*
X134897500Y-63246000D03*
%TD*%
D33*
%TO.C,U4*%
X132883000Y-61167500D03*
X133533000Y-61167500D03*
X134183000Y-61167500D03*
X134833000Y-61167500D03*
X134833000Y-56942500D03*
X134183000Y-56942500D03*
X133533000Y-56942500D03*
X132883000Y-56942500D03*
%TD*%
D34*
%TO.C,Q2*%
X128590000Y-53007500D03*
X130490000Y-53007500D03*
X129540000Y-51132500D03*
%TD*%
D35*
%TO.C,R4*%
X138874000Y-62103000D03*
X137224000Y-62103000D03*
%TD*%
D29*
%TO.C,R10*%
X127000000Y-53062500D03*
X127000000Y-54887500D03*
%TD*%
D36*
%TO.C,U3*%
X137730000Y-54737000D03*
X137730000Y-53467000D03*
X137730000Y-52197000D03*
X137730000Y-50927000D03*
X132780000Y-50927000D03*
X132780000Y-52197000D03*
X132780000Y-53467000D03*
X132780000Y-54737000D03*
%TD*%
D30*
%TO.C,R6*%
X137224000Y-65151000D03*
X138874000Y-65151000D03*
%TD*%
D37*
%TO.C,C7*%
X110516500Y-56134000D03*
X112241500Y-56134000D03*
%TD*%
D38*
%TO.C,SW1*%
X110127000Y-65240000D03*
X106027000Y-65240000D03*
X110127000Y-66840000D03*
X106027000Y-66840000D03*
%TD*%
D39*
%TO.C,U6*%
X110749500Y-57851000D03*
X110749500Y-58801000D03*
X110749500Y-59751000D03*
X113024500Y-59751000D03*
X113024500Y-57851000D03*
%TD*%
%TO.C,U5*%
X112258500Y-52660000D03*
X112258500Y-53610000D03*
X112258500Y-54560000D03*
X114533500Y-54560000D03*
X114533500Y-52660000D03*
%TD*%
D37*
%TO.C,C5*%
X112167500Y-65913000D03*
X113892500Y-65913000D03*
%TD*%
D40*
%TO.C,Q3*%
X116652000Y-52690000D03*
X116652000Y-53340000D03*
X116652000Y-53990000D03*
X118552000Y-53990000D03*
X118552000Y-53340000D03*
X118552000Y-52690000D03*
%TD*%
D31*
%TO.C,R3*%
X136882500Y-58166000D03*
X138707500Y-58166000D03*
%TD*%
D41*
%TO.C,BT1*%
X112268000Y-48514000D03*
D42*
X114268000Y-48514000D03*
%TD*%
D22*
%TO.C,J4*%
X101600000Y-71120000D03*
D23*
X104140000Y-71120000D03*
X106680000Y-71120000D03*
X109220000Y-71120000D03*
X111760000Y-71120000D03*
X114300000Y-71120000D03*
X116840000Y-71120000D03*
X119380000Y-71120000D03*
%TD*%
D22*
%TO.C,J1*%
X144780000Y-48260000D03*
D23*
X142240000Y-48260000D03*
X139700000Y-48260000D03*
X137160000Y-48260000D03*
%TD*%
D43*
%TO.C,C6*%
X131318000Y-56414500D03*
X131318000Y-58139500D03*
%TD*%
D44*
%TO.C,C9*%
X137274000Y-68199000D03*
X138824000Y-68199000D03*
%TD*%
D45*
%TO.C,R16*%
X108712000Y-49553500D03*
X108712000Y-47728500D03*
%TD*%
D44*
%TO.C,C8*%
X137274000Y-60579000D03*
X138824000Y-60579000D03*
%TD*%
D46*
%TO.C,C10*%
X148082000Y-50305000D03*
X148082000Y-48755000D03*
%TD*%
D28*
%TO.C,C4*%
X118083500Y-60736000D03*
X116358500Y-60736000D03*
%TD*%
%TO.C,C3*%
X118083500Y-62230000D03*
X116358500Y-62230000D03*
%TD*%
D30*
%TO.C,R8*%
X137224000Y-66675000D03*
X138874000Y-66675000D03*
%TD*%
D29*
%TO.C,R11*%
X110490000Y-52681500D03*
X110490000Y-54506500D03*
%TD*%
D47*
%TO.C,D1*%
X139847000Y-51054000D03*
X142347000Y-51054000D03*
%TD*%
D28*
%TO.C,C1*%
X118110000Y-59182000D03*
X116385000Y-59182000D03*
%TD*%
D48*
%TO.C,Q1*%
X133271500Y-67244000D03*
X133271500Y-65344000D03*
X131396500Y-66294000D03*
%TD*%
M02*
