<?xml version="1.0" standalone="no"?>
 <!DOCTYPE svg PUBLIC "-//W3C//DTD SVG 1.1//EN" 
 "http://www.w3.org/Graphics/SVG/1.1/DTD/svg11.dtd"> 
<svg
  xmlns:svg="http://www.w3.org/2000/svg"
  xmlns="http://www.w3.org/2000/svg"
  xmlns:xlink="http://www.w3.org/1999/xlink"
  version="1.1"
  width="8.039100cm" height="2.646680cm" viewBox="0 0 80391000 26466800">
<title>SVG Picture created as Scale-B_Fab.svg date 2022/02/23 20:52:45 </title>
  <desc>Picture generated by PCBNEW </desc>
<g style="fill:#000000; fill-opacity:1.000000;stroke:#000000; stroke-opacity:1.000000;
stroke-linecap:round; stroke-linejoin:round;"
 transform="translate(0 0) scale(1 1)">
</g>
<g style="fill:#000000; fill-opacity:0.0; 
stroke:#000000; stroke-width:0.000000; stroke-opacity:1; 
stroke-linecap:round; stroke-linejoin:round;">
</g>
<g style="fill:#000084; fill-opacity:0.0; 
stroke:#000084; stroke-width:0.000000; stroke-opacity:1; 
stroke-linecap:round; stroke-linejoin:round;">
</g>
<g style="fill:#000084; fill-opacity:0.0; 
stroke:#000084; stroke-width:150000.000000; stroke-opacity:1; 
stroke-linecap:round; stroke-linejoin:round;">
<text x="33471000.000000" y="27728000.000000"
transform="scale(-1 1) translate(-66942000.000000 0)"
textLength="13588667.000000" font-size="1333333.000000" lengthAdjust="spacingAndGlyphs"
text-anchor="middle" opacity="0">Display Connector</text>
<g class="stroked-text"><desc>Display Connector</desc>
<path d="M40066238 27680380
L40066238 26680380
L39828142 26680380
L39685285 26728000
L39590047 26823238
L39542428 26918476
L39494809 27108952
L39494809 27251809
L39542428 27442285
L39590047 27537523
L39685285 27632761
L39828142 27680380
L40066238 27680380
" />
<path d="M39066238 27680380
L39066238 27013714
" />
<path d="M39066238 26680380
L39113857 26728000
L39066238 26775619
L39018619 26728000
L39066238 26680380
L39066238 26775619
" />
<path d="M38637666 27632761
L38542428 27680380
L38351952 27680380
L38256714 27632761
L38209095 27537523
L38209095 27489904
L38256714 27394666
L38351952 27347047
L38494809 27347047
L38590047 27299428
L38637666 27204190
L38637666 27156571
L38590047 27061333
L38494809 27013714
L38351952 27013714
L38256714 27061333
" />
<path d="M37780523 27013714
L37780523 28013714
" />
<path d="M37780523 27061333
L37685285 27013714
L37494809 27013714
L37399571 27061333
L37351952 27108952
L37304333 27204190
L37304333 27489904
L37351952 27585142
L37399571 27632761
L37494809 27680380
L37685285 27680380
L37780523 27632761
" />
<path d="M36732904 27680380
L36828142 27632761
L36875761 27537523
L36875761 26680380
" />
<path d="M35923380 27680380
L35923380 27156571
L35971000 27061333
L36066238 27013714
L36256714 27013714
L36351952 27061333
" />
<path d="M35923380 27632761
L36018619 27680380
L36256714 27680380
L36351952 27632761
L36399571 27537523
L36399571 27442285
L36351952 27347047
L36256714 27299428
L36018619 27299428
L35923380 27251809
" />
<path d="M35542428 27013714
L35304333 27680380
" />
<path d="M35066238 27013714
L35304333 27680380
L35399571 27918476
L35447190 27966095
L35542428 28013714
" />
<path d="M33351952 27585142
L33399571 27632761
L33542428 27680380
L33637666 27680380
L33780523 27632761
L33875761 27537523
L33923380 27442285
L33971000 27251809
L33971000 27108952
L33923380 26918476
L33875761 26823238
L33780523 26728000
L33637666 26680380
L33542428 26680380
L33399571 26728000
L33351952 26775619
" />
<path d="M32780523 27680380
L32875761 27632761
L32923380 27585142
L32971000 27489904
L32971000 27204190
L32923380 27108952
L32875761 27061333
L32780523 27013714
L32637666 27013714
L32542428 27061333
L32494809 27108952
L32447190 27204190
L32447190 27489904
L32494809 27585142
L32542428 27632761
L32637666 27680380
L32780523 27680380
" />
<path d="M32018619 27013714
L32018619 27680380
" />
<path d="M32018619 27108952
L31971000 27061333
L31875761 27013714
L31732904 27013714
L31637666 27061333
L31590047 27156571
L31590047 27680380
" />
<path d="M31113857 27013714
L31113857 27680380
" />
<path d="M31113857 27108952
L31066238 27061333
L30971000 27013714
L30828142 27013714
L30732904 27061333
L30685285 27156571
L30685285 27680380
" />
<path d="M29828142 27632761
L29923380 27680380
L30113857 27680380
L30209095 27632761
L30256714 27537523
L30256714 27156571
L30209095 27061333
L30113857 27013714
L29923380 27013714
L29828142 27061333
L29780523 27156571
L29780523 27251809
L30256714 27347047
" />
<path d="M28923380 27632761
L29018619 27680380
L29209095 27680380
L29304333 27632761
L29351952 27585142
L29399571 27489904
L29399571 27204190
L29351952 27108952
L29304333 27061333
L29209095 27013714
L29018619 27013714
L28923380 27061333
" />
<path d="M28637666 27013714
L28256714 27013714
" />
<path d="M28494809 26680380
L28494809 27537523
L28447190 27632761
L28351952 27680380
L28256714 27680380
" />
<path d="M27780523 27680380
L27875761 27632761
L27923380 27585142
L27971000 27489904
L27971000 27204190
L27923380 27108952
L27875761 27061333
L27780523 27013714
L27637666 27013714
L27542428 27061333
L27494809 27108952
L27447190 27204190
L27447190 27489904
L27494809 27585142
L27542428 27632761
L27637666 27680380
L27780523 27680380
" />
<path d="M27018619 27680380
L27018619 27013714
" />
<path d="M27018619 27204190
L26971000 27108952
L26923380 27061333
L26828142 27013714
L26732904 27013714
" />
</g></g>
<g style="fill:#000084; fill-opacity:0.0; 
stroke:#000084; stroke-width:60000.000000; stroke-opacity:1; 
stroke-linecap:round; stroke-linejoin:round;">
<text x="31820000.000000" y="24684000.000000"
transform="scale(-1 1) translate(-63640000.000000 0)"
textLength="490714.000000" font-size="533333.000000" lengthAdjust="spacingAndGlyphs"
text-anchor="middle" opacity="0">J3</text>
<g class="stroked-text"><desc>J3</desc>
<path d="M31953333 24160190
L31953333 24517333
L31972380 24588761
L32010476 24636380
L32067619 24660190
L32105714 24660190
" />
<path d="M31800952 24160190
L31553333 24160190
L31686666 24350666
L31629523 24350666
L31591428 24374476
L31572380 24398285
L31553333 24445904
L31553333 24564952
L31572380 24612571
L31591428 24636380
L31629523 24660190
L31743809 24660190
L31781904 24636380
L31800952 24612571
" />
</g></g>
<g style="fill:#000084; fill-opacity:0.0; 
stroke:#000084; stroke-width:150000.000000; stroke-opacity:1; 
stroke-linecap:round; stroke-linejoin:round;">
<text x="50489000.000000" y="14254000.000000"
transform="scale(-1 1) translate(-100978000.000000 0)"
textLength="17636286.000000" font-size="1333333.000000" lengthAdjust="spacingAndGlyphs"
text-anchor="middle" opacity="0">PEC12R-4120F-S0012</text>
<g class="stroked-text"><desc>PEC12R-4120F-S0012</desc>
<path d="M59108047 14206380
L59108047 13206380
L58727095 13206380
L58631857 13254000
L58584238 13301619
L58536619 13396857
L58536619 13539714
L58584238 13634952
L58631857 13682571
L58727095 13730190
L59108047 13730190
" />
<path d="M58108047 13682571
L57774714 13682571
" />
<path d="M57631857 14206380
L58108047 14206380
L58108047 13206380
L57631857 13206380
" />
<path d="M56631857 14111142
L56679476 14158761
L56822333 14206380
L56917571 14206380
L57060428 14158761
L57155666 14063523
L57203285 13968285
L57250904 13777809
L57250904 13634952
L57203285 13444476
L57155666 13349238
L57060428 13254000
L56917571 13206380
L56822333 13206380
L56679476 13254000
L56631857 13301619
" />
<path d="M55679476 14206380
L56250904 14206380
" />
<path d="M55965190 14206380
L55965190 13206380
L56060428 13349238
L56155666 13444476
L56250904 13492095
" />
<path d="M55298523 13301619
L55250904 13254000
L55155666 13206380
L54917571 13206380
L54822333 13254000
L54774714 13301619
L54727095 13396857
L54727095 13492095
L54774714 13634952
L55346142 14206380
L54727095 14206380
" />
<path d="M53727095 14206380
L54060428 13730190
" />
<path d="M54298523 14206380
L54298523 13206380
L53917571 13206380
L53822333 13254000
L53774714 13301619
L53727095 13396857
L53727095 13539714
L53774714 13634952
L53822333 13682571
L53917571 13730190
L54298523 13730190
" />
<path d="M53298523 13825428
L52536619 13825428
" />
<path d="M51631857 13539714
L51631857 14206380
" />
<path d="M51869952 13158761
L52108047 13873047
L51489000 13873047
" />
<path d="M50584238 14206380
L51155666 14206380
" />
<path d="M50869952 14206380
L50869952 13206380
L50965190 13349238
L51060428 13444476
L51155666 13492095
" />
<path d="M50203285 13301619
L50155666 13254000
L50060428 13206380
L49822333 13206380
L49727095 13254000
L49679476 13301619
L49631857 13396857
L49631857 13492095
L49679476 13634952
L50250904 14206380
L49631857 14206380
" />
<path d="M49012809 13206380
L48917571 13206380
L48822333 13254000
L48774714 13301619
L48727095 13396857
L48679476 13587333
L48679476 13825428
L48727095 14015904
L48774714 14111142
L48822333 14158761
L48917571 14206380
L49012809 14206380
L49108047 14158761
L49155666 14111142
L49203285 14015904
L49250904 13825428
L49250904 13587333
L49203285 13396857
L49155666 13301619
L49108047 13254000
L49012809 13206380
" />
<path d="M47917571 13682571
L48250904 13682571
" />
<path d="M48250904 14206380
L48250904 13206380
L47774714 13206380
" />
<path d="M47393761 13825428
L46631857 13825428
" />
<path d="M46203285 14158761
L46060428 14206380
L45822333 14206380
L45727095 14158761
L45679476 14111142
L45631857 14015904
L45631857 13920666
L45679476 13825428
L45727095 13777809
L45822333 13730190
L46012809 13682571
L46108047 13634952
L46155666 13587333
L46203285 13492095
L46203285 13396857
L46155666 13301619
L46108047 13254000
L46012809 13206380
L45774714 13206380
L45631857 13254000
" />
<path d="M45012809 13206380
L44917571 13206380
L44822333 13254000
L44774714 13301619
L44727095 13396857
L44679476 13587333
L44679476 13825428
L44727095 14015904
L44774714 14111142
L44822333 14158761
L44917571 14206380
L45012809 14206380
L45108047 14158761
L45155666 14111142
L45203285 14015904
L45250904 13825428
L45250904 13587333
L45203285 13396857
L45155666 13301619
L45108047 13254000
L45012809 13206380
" />
<path d="M44060428 13206380
L43965190 13206380
L43869952 13254000
L43822333 13301619
L43774714 13396857
L43727095 13587333
L43727095 13825428
L43774714 14015904
L43822333 14111142
L43869952 14158761
L43965190 14206380
L44060428 14206380
L44155666 14158761
L44203285 14111142
L44250904 14015904
L44298523 13825428
L44298523 13587333
L44250904 13396857
L44203285 13301619
L44155666 13254000
L44060428 13206380
" />
<path d="M42774714 14206380
L43346142 14206380
" />
<path d="M43060428 14206380
L43060428 13206380
L43155666 13349238
L43250904 13444476
L43346142 13492095
" />
<path d="M42393761 13301619
L42346142 13254000
L42250904 13206380
L42012809 13206380
L41917571 13254000
L41869952 13301619
L41822333 13396857
L41822333 13492095
L41869952 13634952
L42441380 14206380
L41822333 14206380
" />
</g></g>
<g style="fill:#000084; fill-opacity:0.0; 
stroke:#000084; stroke-width:100000.000000; stroke-opacity:1; 
stroke-linecap:round; stroke-linejoin:round;">
<path d="M36900000 25069000
L36900000 23164000
" />
<path d="M26740000 25704000
L36265000 25704000
" />
<path d="M36265000 25704000
L36900000 25069000
" />
<path d="M26740000 23164000
L26740000 25704000
" />
<path d="M36900000 23164000
L26740000 23164000
" />
<g >
</g>
<g >
</g>
<g >
</g>
<g >
</g>
<g >
</g>
<g >
</g>
<g >
</g>
<g >
</g>
<g >
</g>
<g >
</g>
<g >
</g>
<g >
</g>
<g >
</g>
<g >
</g>
<g >
</g>
<g >
</g>
<g >
</g>
<g >
</g>
<g >
</g>
<g >
</g>
<g >
</g>
<g >
</g>
<g >
</g>
<g >
</g>
<g >
</g>
<g >
</g>
<g >
</g>
<g >
</g>
<g >
</g>
<g >
</g>
<g >
</g>
<g >
</g>
<g >
</g>
<g >
</g>
<g >
</g>
<g >
</g>
<g >
</g>
<g >
</g>
<g >
</g>
<g >
</g>
<g >
</g>
<g >
</g>
<g >
</g>
<g >
</g>
<g >
</g>
<g >
</g>
<g >
</g>
<g >
</g>
<g >
</g>
</g>
<g style="fill:#000000; fill-opacity:0.0; 
stroke:#000000; stroke-width:100000.000000; stroke-opacity:1; 
stroke-linecap:round; stroke-linejoin:round;">
</g>
<g style="fill:#C2C200; fill-opacity:0.0; 
stroke:#C2C200; stroke-width:100000.000000; stroke-opacity:1; 
stroke-linecap:round; stroke-linejoin:round;">
<path d="M70000 50000
L50000 14100000
" />
<path d="M58236000 25958000
L58236000 50000
" />
<path d="M70000 25958000
L58236000 25958000
" />
<path d="M58236000 50000
L70000 50000
" />
<path d="M50000 20100000
L70000 25958000
" />
</g>
<g style="fill:#C2C200; fill-opacity:0.0; 
stroke:#C2C200; stroke-width:50000.000000; stroke-opacity:1; 
stroke-linecap:round; stroke-linejoin:round;">
<path d="M50000 14100000
L50000 15100000
" />
<path d="M550000 16600000
L2650000 16600000
" />
<path d="M2650000 15600000
L550000 15600000
" />
<path d="M50000 17100000
L50000 20100000
" />
<path d="M550000.000000 16600000.000001 A500001.000000 500001.000000 0.0 0 0 50000.000001 17100000.000000" />
<path d="M2650000.000000 16600000.000000 A500000.000000 500000.000000 0.0 0 0 2650000.000000 15600000.000000" />
<path d="M50000.000001 15100000.000000 A500001.000000 500001.000000 0.0 0 0 550000.000000 15599999.999999" />
<g >
</g>
<g >
</g>
<g >
</g>
<g >
</g>
<g >
</g>
<g >
</g>
<g >
</g>
<g >
</g>
<g >
</g>
<g >
</g>
<g >
</g>
<g >
</g>
<g >
</g>
<g >
</g>
<g >
</g>
<g >
</g>
<g >
</g>
<g >
</g>
<g >
</g>
<g >
</g>
<g >
</g>
<g >
</g>
<g >
</g>
<g >
</g>
<g >
</g>
<g >
</g>
<g >
</g>
<g >
</g>
<g >
</g>
<g >
</g>
<g >
</g>
<g >
</g>
<g >
</g>
<g >
</g>
<g >
</g>
<g >
</g>
<g >
</g>
<g >
</g>
<g >
</g>
<g >
</g>
<g >
</g>
<g >
</g>
<g >
</g>
<g >
</g>
<g >
</g>
<g >
</g>
<g >
</g>
<g >
</g>
<g >
</g>
</g> 
</svg>
