<?xml version="1.0" standalone="no"?>
 <!DOCTYPE svg PUBLIC "-//W3C//DTD SVG 1.1//EN" 
 "http://www.w3.org/Graphics/SVG/1.1/DTD/svg11.dtd"> 
<svg
  xmlns:svg="http://www.w3.org/2000/svg"
  xmlns="http://www.w3.org/2000/svg"
  xmlns:xlink="http://www.w3.org/1999/xlink"
  version="1.1"
  width="8.039100cm" height="2.646680cm" viewBox="0 0 80391000 26466800">
<title>SVG Picture created as Scale-B_Silkscreen.svg date 2022/02/23 20:52:45 </title>
  <desc>Picture generated by PCBNEW </desc>
<g style="fill:#000000; fill-opacity:1.000000;stroke:#000000; stroke-opacity:1.000000;
stroke-linecap:round; stroke-linejoin:round;"
 transform="translate(0 0) scale(1 1)">
</g>
<g style="fill:#000000; fill-opacity:0.0; 
stroke:#000000; stroke-width:0.000000; stroke-opacity:1; 
stroke-linecap:round; stroke-linejoin:round;">
</g>
<g style="fill:#840084; fill-opacity:0.0; 
stroke:#840084; stroke-width:0.000000; stroke-opacity:1; 
stroke-linecap:round; stroke-linejoin:round;">
</g>
<g style="fill:#840084; fill-opacity:0.0; 
stroke:#840084; stroke-width:150000.000000; stroke-opacity:1; 
stroke-linecap:round; stroke-linejoin:round;">
<path d="M26740000 26399000
L6390000 26399000
" />
<path d="M6390000 26399000
L6390000 17449000
" />
<path d="M6390000 17449000
L26740000 17449000
" />
<path d="M26740000 17449000
L26740000 26399000
" />
<path d="M36960000 26399000
L26740000 26399000
" />
<path d="M26740000 26399000
L26740000 17449000
" />
<path d="M26740000 17449000
L36960000 17449000
" />
<path d="M36960000 17449000
L36960000 26399000
" />
</g>
<g style="fill:#840084; fill-opacity:0.0; 
stroke:#840084; stroke-width:200000.000000; stroke-opacity:1; 
stroke-linecap:round; stroke-linejoin:round;">
<text x="36900000.000000" y="19319000.000000"
transform="scale(-1 1) translate(-73800000.000000 0)"
textLength="2914285.000000" font-size="1600000.000000" lengthAdjust="spacingAndGlyphs"
text-anchor="start" opacity="0">I2C</text>
<g class="stroked-text"><desc>I2C</desc>
<path d="M36484285 19261857
L36484285 18061857
" />
<path d="M35970000 18176142
L35912857 18119000
L35798571 18061857
L35512857 18061857
L35398571 18119000
L35341428 18176142
L35284285 18290428
L35284285 18404714
L35341428 18576142
L36027142 19261857
L35284285 19261857
" />
<path d="M34084285 19147571
L34141428 19204714
L34312857 19261857
L34427142 19261857
L34598571 19204714
L34712857 19090428
L34770000 18976142
L34827142 18747571
L34827142 18576142
L34770000 18347571
L34712857 18233285
L34598571 18119000
L34427142 18061857
L34312857 18061857
L34141428 18119000
L34084285 18176142
" />
</g></g>
<g style="fill:#840084; fill-opacity:0.0; 
stroke:#840084; stroke-width:100000.000000; stroke-opacity:1; 
stroke-linecap:round; stroke-linejoin:round;">
<g transform="rotate(-270.000000 33090000.000000 22529000.000000)">
<text x="33090000.000000" y="22929000.000000"
transform="scale(-1 1) translate(-66180000.000000 0)"
textLength="1705714.000000" font-size="1066666.000000" lengthAdjust="spacingAndGlyphs"
text-anchor="start" opacity="0">V_{DD}</text>
</g>
<g class="stroked-text"><desc>V_{DD}</desc>
<path d="M33528095 22387809
L32728095 22121142
L33528095 21854476
" />
<path d="M32640476 21625904
L33280476 21625904
L33280476 21473523
L33250000 21382095
L33189047 21321142
L33128095 21290666
L33006190 21260190
L32914761 21260190
L32792857 21290666
L32731904 21321142
L32670952 21382095
L32640476 21473523
L32640476 21625904
" />
<path d="M32640476 20985904
L33280476 20985904
L33280476 20833523
L33250000 20742095
L33189047 20681142
L33128095 20650666
L33006190 20620190
L32914761 20620190
L32792857 20650666
L32731904 20681142
L32670952 20742095
L32640476 20833523
L32640476 20985904
" />
</g><g transform="rotate(-270.000000 35757000.000000 22529000.000000)">
<text x="35757000.000000" y="22929000.000000"
transform="scale(-1 1) translate(-71514000.000000 0)"
textLength="2308095.000000" font-size="1066666.000000" lengthAdjust="spacingAndGlyphs"
text-anchor="start" opacity="0">GND</text>
</g>
<g class="stroked-text"><desc>GND</desc>
<path d="M36157000 21854476
L36195095 21930666
L36195095 22044952
L36157000 22159238
L36080809 22235428
L36004619 22273523
L35852238 22311619
L35737952 22311619
L35585571 22273523
L35509380 22235428
L35433190 22159238
L35395095 22044952
L35395095 21968761
L35433190 21854476
L35471285 21816380
L35737952 21816380
L35737952 21968761
" />
<path d="M35395095 21473523
L36195095 21473523
L35395095 21016380
L36195095 21016380
" />
<path d="M35395095 20635428
L36195095 20635428
L36195095 20444952
L36157000 20330666
L36080809 20254476
L36004619 20216380
L35852238 20178285
L35737952 20178285
L35585571 20216380
L35509380 20254476
L35433190 20330666
L35395095 20444952
L35395095 20635428
" />
</g><g transform="rotate(-270.000000 30550000.000000 22529000.000000)">
<text x="30550000.000000" y="22929000.000000"
transform="scale(-1 1) translate(-61100000.000000 0)"
textLength="2079524.000000" font-size="1066666.000000" lengthAdjust="spacingAndGlyphs"
text-anchor="start" opacity="0">SCL</text>
</g>
<g class="stroked-text"><desc>SCL</desc>
<path d="M30226190 22311619
L30188095 22197333
L30188095 22006857
L30226190 21930666
L30264285 21892571
L30340476 21854476
L30416666 21854476
L30492857 21892571
L30530952 21930666
L30569047 22006857
L30607142 22159238
L30645238 22235428
L30683333 22273523
L30759523 22311619
L30835714 22311619
L30911904 22273523
L30950000 22235428
L30988095 22159238
L30988095 21968761
L30950000 21854476
" />
<path d="M30264285 21054476
L30226190 21092571
L30188095 21206857
L30188095 21283047
L30226190 21397333
L30302380 21473523
L30378571 21511619
L30530952 21549714
L30645238 21549714
L30797619 21511619
L30873809 21473523
L30950000 21397333
L30988095 21283047
L30988095 21206857
L30950000 21092571
L30911904 21054476
" />
<path d="M30188095 20330666
L30188095 20711619
L30988095 20711619
" />
</g><g transform="rotate(-270.000000 28010000.000000 22529000.000000)">
<text x="28010000.000000" y="22929000.000000"
transform="scale(-1 1) translate(-56020000.000000 0)"
textLength="2117619.000000" font-size="1066666.000000" lengthAdjust="spacingAndGlyphs"
text-anchor="start" opacity="0">SDA</text>
</g>
<g class="stroked-text"><desc>SDA</desc>
<path d="M27686190 22311619
L27648095 22197333
L27648095 22006857
L27686190 21930666
L27724285 21892571
L27800476 21854476
L27876666 21854476
L27952857 21892571
L27990952 21930666
L28029047 22006857
L28067142 22159238
L28105238 22235428
L28143333 22273523
L28219523 22311619
L28295714 22311619
L28371904 22273523
L28410000 22235428
L28448095 22159238
L28448095 21968761
L28410000 21854476
" />
<path d="M27648095 21511619
L28448095 21511619
L28448095 21321142
L28410000 21206857
L28333809 21130666
L28257619 21092571
L28105238 21054476
L27990952 21054476
L27838571 21092571
L27762380 21130666
L27686190 21206857
L27648095 21321142
L27648095 21511619
" />
<path d="M27876666 20749714
L27876666 20368761
" />
<path d="M27648095 20825904
L28448095 20559238
L27648095 20292571
" />
</g></g>
<g style="fill:#840084; fill-opacity:0.0; 
stroke:#840084; stroke-width:60000.000000; stroke-opacity:1; 
stroke-linecap:round; stroke-linejoin:round;">
<g transform="rotate(-90.000000 37960000.000000 24434000.000000)">
<text x="37960000.000000" y="24684000.000000"
transform="scale(-1 1) translate(-75920000.000000 0)"
textLength="555714.000000" font-size="533333.000000" lengthAdjust="spacingAndGlyphs"
text-anchor="middle" opacity="0">J3</text>
</g>
<g class="stroked-text"><desc>J3</desc>
<path d="M37686190 24300666
L38043333 24300666
L38114761 24281619
L38162380 24243523
L38186190 24186380
L38186190 24148285
" />
<path d="M37686190 24453047
L37686190 24700666
L37876666 24567333
L37876666 24624476
L37900476 24662571
L37924285 24681619
L37971904 24700666
L38090952 24700666
L38138571 24681619
L38162380 24662571
L38186190 24624476
L38186190 24510190
L38162380 24472095
L38138571 24453047
" />
</g><text x="50489000.000000" y="12492000.000000"
transform="scale(-1 1) translate(-100978000.000000 0)"
textLength="1141048.000000" font-size="533333.000000" lengthAdjust="spacingAndGlyphs"
text-anchor="middle" opacity="0">SW2</text>
<g class="stroked-text"><desc>SW2</desc>
<path d="M51022333 12444380
L50965190 12468190
L50869952 12468190
L50831857 12444380
L50812809 12420571
L50793761 12372952
L50793761 12325333
L50812809 12277714
L50831857 12253904
L50869952 12230095
L50946142 12206285
L50984238 12182476
L51003285 12158666
L51022333 12111047
L51022333 12063428
L51003285 12015809
L50984238 11992000
L50946142 11968190
L50850904 11968190
L50793761 11992000
" />
<path d="M50660428 11968190
L50565190 12468190
L50489000 12111047
L50412809 12468190
L50317571 11968190
" />
<path d="M50184238 12015809
L50165190 11992000
L50127095 11968190
L50031857 11968190
L49993761 11992000
L49974714 12015809
L49955666 12063428
L49955666 12111047
L49974714 12182476
L50203285 12468190
L49955666 12468190
" />
</g></g>
<g style="fill:#840084; fill-opacity:0.0; 
stroke:#840084; stroke-width:120000.000000; stroke-opacity:1; 
stroke-linecap:round; stroke-linejoin:round;">
<path d="M34360000 25764000
L34360000 23104000
" />
<path d="M36960000 25764000
L36960000 24434000
" />
<path d="M35630000 25764000
L36960000 25764000
" />
<path d="M26680000 25764000
L26680000 23104000
" />
<path d="M34360000 23104000
L26680000 23104000
" />
<path d="M34360000 25764000
L26680000 25764000
" />
<path d="M56689000 6054000
L44289000 6054000
" />
<path d="M44289000 6054000
L44289000 19454000
" />
<path d="M44289000 19454000
L56689000 19454000
" />
<path d="M56689000 19454000
L56689000 6054000
" />
<g >
</g>
<g >
</g>
<g >
</g>
<g >
</g>
<g >
</g>
<g >
</g>
<g >
</g>
<g >
</g>
<g >
</g>
<g >
</g>
<g >
</g>
<g >
</g>
<g >
</g>
<g >
</g>
<g >
</g>
<g >
</g>
<g >
</g>
<g >
</g>
<g >
</g>
<g >
</g>
<g >
</g>
<g >
</g>
<g >
</g>
<g >
</g>
<g >
</g>
<g >
</g>
<g >
</g>
<g >
</g>
<g >
</g>
<g >
</g>
<g >
</g>
<g >
</g>
<g >
</g>
<g >
</g>
<g >
</g>
<g >
</g>
<g >
</g>
<g >
</g>
<g >
</g>
<g >
</g>
<g >
</g>
<g >
</g>
<g >
</g>
<g >
</g>
<g >
</g>
<g >
</g>
<g >
</g>
<g >
</g>
<g >
</g>
</g>
<g style="fill:#000000; fill-opacity:0.0; 
stroke:#000000; stroke-width:120000.000000; stroke-opacity:1; 
stroke-linecap:round; stroke-linejoin:round;">
</g>
<g style="fill:#C2C200; fill-opacity:0.0; 
stroke:#C2C200; stroke-width:120000.000000; stroke-opacity:1; 
stroke-linecap:round; stroke-linejoin:round;">
</g>
<g style="fill:#C2C200; fill-opacity:0.0; 
stroke:#C2C200; stroke-width:100000.000000; stroke-opacity:1; 
stroke-linecap:round; stroke-linejoin:round;">
<path d="M70000 50000
L50000 14100000
" />
<path d="M58236000 25958000
L58236000 50000
" />
<path d="M70000 25958000
L58236000 25958000
" />
<path d="M58236000 50000
L70000 50000
" />
<path d="M50000 20100000
L70000 25958000
" />
</g>
<g style="fill:#C2C200; fill-opacity:0.0; 
stroke:#C2C200; stroke-width:50000.000000; stroke-opacity:1; 
stroke-linecap:round; stroke-linejoin:round;">
<path d="M50000 14100000
L50000 15100000
" />
<path d="M550000 16600000
L2650000 16600000
" />
<path d="M2650000 15600000
L550000 15600000
" />
<path d="M50000 17100000
L50000 20100000
" />
<path d="M550000.000000 16600000.000001 A500001.000000 500001.000000 0.0 0 0 50000.000001 17100000.000000" />
<path d="M2650000.000000 16600000.000000 A500000.000000 500000.000000 0.0 0 0 2650000.000000 15600000.000000" />
<path d="M50000.000001 15100000.000000 A500001.000000 500001.000000 0.0 0 0 550000.000000 15599999.999999" />
<g >
</g>
<g >
</g>
<g >
</g>
<g >
</g>
<g >
</g>
<g >
</g>
<g >
</g>
<g >
</g>
<g >
</g>
<g >
</g>
<g >
</g>
<g >
</g>
<g >
</g>
<g >
</g>
<g >
</g>
<g >
</g>
<g >
</g>
<g >
</g>
<g >
</g>
<g >
</g>
<g >
</g>
<g >
</g>
<g >
</g>
<g >
</g>
<g >
</g>
<g >
</g>
<g >
</g>
<g >
</g>
<g >
</g>
<g >
</g>
<g >
</g>
<g >
</g>
<g >
</g>
<g >
</g>
<g >
</g>
<g >
</g>
<g >
</g>
<g >
</g>
<g >
</g>
<g >
</g>
<g >
</g>
<g >
</g>
<g >
</g>
<g >
</g>
<g >
</g>
<g >
</g>
<g >
</g>
<g >
</g>
<g >
</g>
</g> 
</svg>
